<svg xmlns="http://www.w3.org/2000/svg" width="146.5" height="155.073" viewBox="0 0 146.5 155.073">
  <g id="Group_95" data-name="Group 95" transform="translate(-2135.34 -812.59)">
    <g id="Group_93" data-name="Group 93" transform="translate(2135.34 812.59)">
      <path id="Path_1964" data-name="Path 1964" d="M2148.852,850.067a117.83,117.83,0,0,0-1.821,19.551q-.053,2.1-.087,4.194l3.019,17.286q.9,5.14,1.795,10.279a54.516,54.516,0,0,0,1.913,8.139,17.975,17.975,0,0,0,4.131,7.042,17.421,17.421,0,0,0,7.207,4.094,33.886,33.886,0,0,0,3.309.841.626.626,0,0,1,.358.072c1.6.314,3.216.539,4.831.738q5.186.64,10.406.938a133.968,133.968,0,0,0,20.354-.173,24.326,24.326,0,0,0,8.085-1.945,13.442,13.442,0,0,0,6.05-5.706,27.9,27.9,0,0,0,2.7-7.877c.495-2.337.877-4.7,1.188-7.065a.765.765,0,0,1,.071-.541q.173-1.364.317-2.731c.736-6.938,1.061-13.919,1.5-20.88q.664-10.554,1.328-21.107c.1-1.664.249-3.332.308-5,.039-1.113.03-2.76-1.187-3.285a2.809,2.809,0,0,0-3.106,1.132,4.975,4.975,0,0,0-.605,1.115,4.882,4.882,0,0,1-.771,3.481c-.373.533-1.5.434-1.4-.379a17.634,17.634,0,0,1,.63-3.216,3.8,3.8,0,0,0-2.564-2.99,3.351,3.351,0,0,0-3.477,1.216,20.476,20.476,0,0,1-.831,4.174.756.756,0,0,1-1.445,0,5.121,5.121,0,0,1,.834-4.75,6.166,6.166,0,0,0-.192-1.591,3.758,3.758,0,0,0-3.159-2.936c-1.657-.041-2.78,1.616-3.586,2.84a35.674,35.674,0,0,0-2.471,4.434c-2.628,5.585-3.925,11.684-5.368,17.651-.723,2.99-1.477,5.976-2.435,8.9a30.523,30.523,0,0,1-3.626,8.184c-1.493,2.106-3.74,3.994-6.489,3.483-2.613-.485-4.075-3.042-4.9-5.334a41.393,41.393,0,0,1-2.071-9.959,47.187,47.187,0,0,1,.171-10.607c.121-.945,1.622-.954,1.5,0a47,47,0,0,0-.013,12,45.374,45.374,0,0,0,1.156,5.836,15.759,15.759,0,0,0,1.761,4.528,4.207,4.207,0,0,0,3.015,2.123,4.413,4.413,0,0,0,3.4-1.447c2.137-2.058,3.213-5.077,4.181-7.812,2.083-5.884,3.213-12.041,4.83-18.058a65.9,65.9,0,0,1,2.91-8.7,27.781,27.781,0,0,1,4.511-7.786,4.825,4.825,0,0,1,3.434-1.771,12.411,12.411,0,0,1,.521-11.42,12.673,12.673,0,0,1,9.07-5.972,12.829,12.829,0,0,1,10.614,3.664,12.924,12.924,0,0,1-2.073,19.745,5.422,5.422,0,0,1,.742,2.96c.016,1.745-.189,3.509-.3,5.25l-1.422,22.594c-.457,7.255-.783,14.54-1.66,21.76a24.011,24.011,0,0,0,8.081-4.561c4.993-4.233,8.277-10.088,10.457-16.186a62.946,62.946,0,0,0,3.651-21.041.75.75,0,0,1,1.5,0,65.081,65.081,0,0,1-1.245,12.538c-2.521,12.686-9.242,27-22.649,30.884a76.565,76.565,0,0,1-1.618,8.891,23.077,23.077,0,0,1-3.551,8.138c-3.664,4.937-9.667,6.3-15.487,6.734a147.733,147.733,0,0,1-21.954-.111c-3.493-.261-6.989-.615-10.454-1.137-.812-.122-1.624-.26-2.43-.42a22.976,22.976,0,0,0-8.759,2.865,2.166,2.166,0,0,0-1.163,1.326,1.7,1.7,0,0,0,.813,1.556,2.57,2.57,0,0,0,1.206.454,5.375,5.375,0,0,1,3.574-.533.756.756,0,0,1,0,1.446,11.268,11.268,0,0,1-3.224.584,2.4,2.4,0,0,0-1.212,2.307,2.149,2.149,0,0,0,.811,1.359,3.926,3.926,0,0,1,3.659-.029.758.758,0,0,1,.152,1.177,3.256,3.256,0,0,1-3.792.588,2.018,2.018,0,0,0,.047,3.414,13.3,13.3,0,0,1,4.148-.758.754.754,0,0,1,.647,1.128,4.1,4.1,0,0,1-4.8,1.293,2.866,2.866,0,0,0-1.486,2.5,2.226,2.226,0,0,0,1.838,1.809,11.355,11.355,0,0,0,3.32.254l4.473-.08,18.491-.329c12.242-.218,24.509-.305,36.713-1.374a106.347,106.347,0,0,0,20.706-3.4.687.687,0,0,1,.31-.094,47.054,47.054,0,0,0,11.146-4.878c8.449-5.183,14.82-13.2,19.42-21.87,5.1-9.622,8.147-20.141,11.061-30.591a205.821,205.821,0,0,0-2.878-30.183c-1.953-10.789-5.89-21.607-14.866-28.5-9.291-7.137-21.545-9.444-32.893-10.9q-4.7-.6-9.446-.953H2192.24c-9.781.782-19.711,2.88-27.592,9C2155.789,828.47,2150.949,839.287,2148.852,850.067Z" transform="translate(-2144.077 -812.59)" fill="#3000bf"/>
      <path id="Path_1965" data-name="Path 1965" d="M2555.167,1170.058c-1.51.659-3.049,1.235-4.608,1.748a43.667,43.667,0,0,0,8.115,3.206,37.505,37.505,0,0,0,27.409-2.524,28.578,28.578,0,0,0,3.305-10.407,81.82,81.82,0,0,0,.619-9.005q.135-5.1.238-10.193c.141-6.787.232-13.577.161-20.366q-.02-1.954-.055-3.912c-3.035,10.567-6.521,21.146-12.337,30.537C2572.491,1158.057,2564.882,1165.821,2555.167,1170.058Z" transform="translate(-2447.967 -1042.995)" fill="#3000bf"/>
      <path id="Path_1966" data-name="Path 1966" d="M2154.039,1127.713l-.069-.081c-.149-.18-.3-.362-.437-.55a23.219,23.219,0,0,1-3.625-7.9c-.829-3.012-1.308-6.11-1.845-9.183l-1.919-10.991-1.038-5.943q-.04,4.021-.081,8.043l-.382,32.24a42.57,42.57,0,0,1,9.844-5.123Q2154.258,1127.974,2154.039,1127.713Z" transform="translate(-2142.345 -1023.765)" fill="#3000bf"/>
      <path id="Path_1967" data-name="Path 1967" d="M2281.511,1286.545q-.266-1.021-.582-2.028c-.4-1.264-.855-2.507-1.366-3.729a43.278,43.278,0,0,0-8.754-13.365q.5-.528.956-1.089c-11.62,5.023-24.907,3.516-35.85-2.53a79.531,79.531,0,0,1-10.1,2.166c-6.137.94-12.341,1.46-18.537,1.814-12.892.737-25.826.767-38.734,1l-9.692.173c-1.551.027-3.106.092-4.657.076a8.946,8.946,0,0,1-3.176-.5,3.5,3.5,0,0,1-1.915-5.056,4.477,4.477,0,0,1,1.125-1.37,7.064,7.064,0,0,0-.95-6.935,3.563,3.563,0,0,1,.866-3.064,3.774,3.774,0,0,1-.69-.41,2.972,2.972,0,0,1-.864-4.13c1.041-1.454,3.158-2.158,4.757-2.766a25.3,25.3,0,0,1,2.729-.859,25.685,25.685,0,0,1-2.708-.986c-.2-.086-.394-.175-.588-.267l-.165-.08c-.145-.071-.29-.143-.433-.217l-.159-.083q-.259-.137-.514-.281l-.046-.026q-.3-.171-.589-.354l-.016-.01q-.275-.173-.543-.356l-.064-.044q-.27-.186-.533-.381l0,0q-.56-.419-1.083-.883c-.02.01-.041.02-.062.028-3.869,1.557-7.962,3.232-11.117,6.009-1.5,6.367-2.626,12.781-1.887,19.34a28.806,28.806,0,0,0,4.679,13.364,22.3,22.3,0,0,0,12.2,8.454c5.4,1.6,11.156,1.811,16.751,2.01,6.5.232,13,.195,19.5.071,13.02-.247,26.045-.592,39.057-1.12s25.99-1.314,38.927-2.7q1.95-.209,3.9-.437a15.817,15.817,0,0,1-.379-4.611c.063-.959,1.562-.963,1.5,0a14.659,14.659,0,0,0,.809,5.9,12.734,12.734,0,0,0,3.915,2.719c.3.131.706.3,1.169.451h3.787a1.655,1.655,0,0,0,.461-1.221A6.374,6.374,0,0,0,2281.511,1286.545Z" transform="translate(-2135.34 -1134.371)" fill="#3000bf"/>
      <path id="Path_1968" data-name="Path 1968" d="M2419.258,873.218a11.372,11.372,0,0,0-4.144-9.155,10.983,10.983,0,0,0-16.92,3.831,10.943,10.943,0,0,0,.681,10.183,5.186,5.186,0,0,1,1.5,1.213,5.909,5.909,0,0,1,1.344,2.971,4.719,4.719,0,0,1,3.782-.795,5.017,5.017,0,0,1,3.251,2.65c1.192-1.547,3.4-2.534,5.147-1.572A11.517,11.517,0,0,0,2419.258,873.218Zm-14.548.17c-.11.048-.229.095-.354.138a4.674,4.674,0,0,1-.64.171,4.763,4.763,0,0,1-2.75-.3,6.294,6.294,0,0,1-.952-.49l-.13-.083a8.313,8.313,0,0,1-.769-.571,5.031,5.031,0,0,1,2.39-1.1,4.112,4.112,0,0,1,2.294.3,5.873,5.873,0,0,1,1.887,1.359A4.088,4.088,0,0,1,2404.71,873.388Zm8.055.262c-.117-.024-.236-.052-.357-.084-.14-.038-.283-.081-.428-.131a7.908,7.908,0,0,1-1.129-.494,5.029,5.029,0,0,1,2.117-1.576,4.138,4.138,0,0,1,2.517-.133,6.036,6.036,0,0,1,1.908.888,3.909,3.909,0,0,1-.675.653c-.094.073-.2.148-.31.222a4.691,4.691,0,0,1-.973.49A4.831,4.831,0,0,1,2412.766,873.649Z" transform="translate(-2332.535 -849.469)" fill="#3000bf"/>
    </g>
    <path id="Path_1969" data-name="Path 1969" d="M2454.422,901.2a5.034,5.034,0,0,0-2.117,1.576,7.924,7.924,0,0,0,1.13.495c.146.05.288.093.428.131.122.032.24.061.357.084A2.9,2.9,0,0,1,2454.422,901.2Z" transform="translate(-238.649 -66.72)" fill="#fffffd"/>
    <path id="Path_1970" data-name="Path 1970" d="M2472.143,902.209a3.9,3.9,0,0,0,.675-.653,6.035,6.035,0,0,0-1.908-.888,4.132,4.132,0,0,1-.049,2.252,4.685,4.685,0,0,0,.973-.49C2471.946,902.356,2472.049,902.282,2472.143,902.209Z" transform="translate(-252.62 -66.316)" fill="#fffffd"/>
    <path id="Path_1971" data-name="Path 1971" d="M2423.432,903.795a4.694,4.694,0,0,0,.64-.171c.126-.043.245-.09.354-.138a4.086,4.086,0,0,0,.976-.581,5.871,5.871,0,0,0-1.887-1.359A4.244,4.244,0,0,1,2423.432,903.795Z" transform="translate(-216.91 -66.977)" fill="#fffffd"/>
    <path id="Path_1972" data-name="Path 1972" d="M2407.2,900.342a5.029,5.029,0,0,0-2.39,1.1,8.248,8.248,0,0,0,.769.571l.13.083a6.34,6.34,0,0,0,.952.49A2.821,2.821,0,0,1,2407.2,900.342Z" transform="translate(-202.891 -66.07)" fill="#fffffd"/>
    <g id="Group_94" data-name="Group 94" transform="translate(2137.46 823.196)">
      <path id="Path_1973" data-name="Path 1973" d="M2253.575,967.9a47.058,47.058,0,0,1-11.146,4.878.687.687,0,0,0-.31.094,106.344,106.344,0,0,1-20.706,3.4c-12.205,1.068-24.472,1.156-36.714,1.374l-18.49.329-4.473.08a11.352,11.352,0,0,1-3.32-.254,2.225,2.225,0,0,1-1.838-1.809,2.864,2.864,0,0,1,1.486-2.5,4.1,4.1,0,0,0,4.8-1.293.754.754,0,0,0-.647-1.128,13.3,13.3,0,0,0-4.148.758,2.017,2.017,0,0,1-.047-3.414,3.257,3.257,0,0,0,3.792-.588.758.758,0,0,0-.152-1.177,3.926,3.926,0,0,0-3.659.029,2.15,2.15,0,0,1-.811-1.359,2.4,2.4,0,0,1,1.212-2.307,11.264,11.264,0,0,0,3.224-.583.756.756,0,0,0,0-1.446,5.376,5.376,0,0,0-3.574.533,2.566,2.566,0,0,1-1.206-.454,1.7,1.7,0,0,1-.812-1.556,2.167,2.167,0,0,1,1.163-1.326,22.977,22.977,0,0,1,8.759-2.865c.806.16,1.617.3,2.43.42,3.465.522,6.96.876,10.454,1.137a147.759,147.759,0,0,0,21.953.111c5.82-.435,11.824-1.8,15.488-6.734a23.072,23.072,0,0,0,3.551-8.138,76.575,76.575,0,0,0,1.618-8.891c13.406-3.885,20.128-18.2,22.649-30.885a65.06,65.06,0,0,0,1.245-12.538.75.75,0,0,0-1.5,0,62.952,62.952,0,0,1-3.651,21.041c-2.18,6.1-5.464,11.953-10.457,16.187a24.018,24.018,0,0,1-8.081,4.561c.876-7.221,1.2-14.5,1.659-21.76l1.422-22.594c.109-1.741.314-3.505.3-5.25a5.423,5.423,0,0,0-.742-2.961,12.924,12.924,0,0,0,2.073-19.745,12.828,12.828,0,0,0-10.614-3.664,12.672,12.672,0,0,0-9.07,5.973,12.412,12.412,0,0,0-.521,11.419,4.824,4.824,0,0,0-3.433,1.771,27.786,27.786,0,0,0-4.512,7.785,66.016,66.016,0,0,0-2.91,8.7c-1.616,6.016-2.746,12.174-4.83,18.057-.968,2.735-2.044,5.754-4.181,7.812a4.414,4.414,0,0,1-3.4,1.447,4.206,4.206,0,0,1-3.015-2.123,15.765,15.765,0,0,1-1.761-4.528,45.319,45.319,0,0,1-1.156-5.836,46.988,46.988,0,0,1,.013-12c.123-.954-1.378-.945-1.5,0a47.186,47.186,0,0,0-.171,10.607,41.415,41.415,0,0,0,2.071,9.959c.827,2.292,2.29,4.849,4.9,5.334,2.75.511,5-1.377,6.489-3.483a30.524,30.524,0,0,0,3.626-8.184c.958-2.925,1.712-5.911,2.435-8.9,1.443-5.967,2.74-12.066,5.368-17.651a35.635,35.635,0,0,1,2.471-4.434c.806-1.224,1.929-2.881,3.586-2.84a3.759,3.759,0,0,1,3.159,2.936,6.178,6.178,0,0,1,.192,1.591,5.121,5.121,0,0,0-.835,4.75.757.757,0,0,0,1.446,0,20.51,20.51,0,0,0,.83-4.174,3.352,3.352,0,0,1,3.477-1.216,3.8,3.8,0,0,1,2.563,2.99,17.718,17.718,0,0,0-.63,3.215c-.107.812,1.024.912,1.4.379a4.881,4.881,0,0,0,.771-3.481,4.957,4.957,0,0,1,.605-1.115,2.809,2.809,0,0,1,3.106-1.132c1.217.525,1.227,2.172,1.187,3.285-.059,1.667-.2,3.334-.308,5q-.664,10.554-1.328,21.107c-.438,6.961-.763,13.943-1.5,20.88q-.145,1.366-.317,2.731a.765.765,0,0,0-.071.541c-.311,2.369-.693,4.728-1.187,7.065a27.9,27.9,0,0,1-2.7,7.877,13.439,13.439,0,0,1-6.05,5.706,24.322,24.322,0,0,1-8.085,1.945,133.991,133.991,0,0,1-20.355.173q-5.216-.3-10.406-.938c-1.615-.2-3.232-.425-4.831-.738a.625.625,0,0,0-.358-.072,33.864,33.864,0,0,1-3.309-.841,17.423,17.423,0,0,1-7.208-4.094,17.982,17.982,0,0,1-4.131-7.042,54.543,54.543,0,0,1-1.913-8.139q-.906-5.137-1.8-10.278l-3.018-17.286q-.07,4.039-.1,8.078.519,2.971,1.038,5.943l1.919,10.991c.537,3.073,1.015,6.171,1.845,9.183a23.221,23.221,0,0,0,3.624,7.9c.142.188.288.37.438.55l.068.081c.147.174.3.345.449.512h0a42.56,42.56,0,0,0-9.844,5.124q-.008.682-.017,1.363-.082.343-.163.687c3.155-2.777,7.248-4.451,11.116-6.008.021-.009.042-.018.062-.028q.523.464,1.083.883l0,0q.263.2.533.381l.064.044q.268.183.544.357l.016.01q.29.182.589.354l.047.026q.254.145.513.281l.159.082c.143.074.288.146.433.217l.165.079c.194.092.39.182.588.267a25.662,25.662,0,0,0,2.708.986,25.281,25.281,0,0,0-2.73.859c-1.6.608-3.717,1.312-4.757,2.766a2.971,2.971,0,0,0,.864,4.13,3.776,3.776,0,0,0,.69.41,3.508,3.508,0,0,0,.159,4.925,3.454,3.454,0,0,0-.075,5.074,4.481,4.481,0,0,0-1.125,1.37,3.5,3.5,0,0,0,1.915,5.056,8.944,8.944,0,0,0,3.176.5c1.551.016,3.106-.049,4.657-.076l9.692-.173c12.908-.23,25.842-.259,38.734-1,6.2-.354,12.4-.875,18.537-1.814a79.568,79.568,0,0,0,10.1-2.166c10.943,6.046,24.229,7.553,35.85,2.529a19.187,19.187,0,0,0,1.691-2.471,37.5,37.5,0,0,1-27.408,2.524,43.678,43.678,0,0,1-8.115-3.206c1.56-.512,3.1-1.089,4.609-1.748,9.714-4.237,17.323-12,22.845-20.916,5.817-9.391,9.3-19.97,12.337-30.537q-.047-2.535-.125-5.074c-2.914,10.451-5.958,20.969-11.061,30.591C2268.4,954.707,2262.024,962.721,2253.575,967.9Zm-30.416-89.921c-1.749-.961-3.955.026-5.147,1.573a5.016,5.016,0,0,0-3.251-2.65,4.718,4.718,0,0,0-3.781.795,5.912,5.912,0,0,0-1.344-2.971,5.194,5.194,0,0,0-1.5-1.213,10.941,10.941,0,0,1-.68-10.183,10.983,10.983,0,0,1,16.92-3.831,11.372,11.372,0,0,1,4.143,9.155A11.516,11.516,0,0,1,2223.16,877.983Z" transform="translate(-2143.919 -855.513)" fill="#fff"/>
      <path id="Path_1974" data-name="Path 1974" d="M2683.359,1407.216a14.659,14.659,0,0,1-.809-5.9c.063-.963-1.436-.96-1.5,0a15.832,15.832,0,0,0,.379,4.611l.744-.086A13.461,13.461,0,0,0,2683.359,1407.216Z" transform="translate(-2548.311 -1265.918)" fill="#fff"/>
      <path id="Path_1975" data-name="Path 1975" d="M2414.995,900.487a4.112,4.112,0,0,0-2.294-.3,2.82,2.82,0,0,0-.539,2.246,4.766,4.766,0,0,0,2.75.3A4.249,4.249,0,0,0,2414.995,900.487Z" transform="translate(-2345.85 -889.113)"/>
      <path id="Path_1976" data-name="Path 1976" d="M2462.342,900.257a4.138,4.138,0,0,0-2.517.133,2.9,2.9,0,0,0-.2,2.286,4.832,4.832,0,0,0,2.67-.166A4.132,4.132,0,0,0,2462.342,900.257Z" transform="translate(-2381.512 -889.1)"/>
    </g>
  </g>
</svg>
